# xmcd
#
# Track frame offsets:
#	205
#	11810
#	27007
#	43002
#	56187
#	69895
#	81735
#	117457
#	135215
#	156747
#	167075
#	181097
#	198485
#	209232
#	223125
#	240652
#	263437
#	284135
#	296247
#
# Disc length: 4187 seconds
#
# Revision: 1
# Processed by: cddbd v1.4b41PL2 Copyright (c) Steve Scherf et al.
# Submitted via: audiograbber 1.80
#
DISCID=31105913
DTITLE=Various Artist - Blues Guitar Spotlight
DYEAR=1900
DGENRE=
TTITLE0=Alex Shultz and The Mighty Flyers - Jam Up
TTITLE1=Snooks Eaglin - Travelling Mood
TTITLE2=Anson Funderburgh and The Rockets - Ways Of Man
TTITLE3=A. Funderburgh and Joe Hughes - I Don't Want Your Money
TTITLE4=Robert Ward - Forgive Me Darling
TTITLE5=Hubert Sumlin - Healing Feeling
TTITLE6=Ronnie Earl and The Broadcasters - Thats When My Soul Comes Down
TTITLE7=Mike Morgan and The Crawl - You Ain't Like You Used To Be
TTITLE8=Earl King - Time For The Sun To Rise
TTITLE9=Bobby Radcliff - The Stinger
TTITLE10=Mike Morgan and The Crawl - Frankie's Blues
TTITLE11=Snooks Eaglin - Don't Take It So Hard
TTITLE12=Alex Shultz and The Mighty Flyers - Nook-N-Kranny
TTITLE13=Darrell Nulish and Texas Heat - Won't Throw It All Away
TTITLE14=Clarence Hollimon - Blues For Carol
TTITLE15=Bobby Radcliff - Hard Road To Travel
TTITLE16=The James Harman Band - I Declare
TTITLE17=Ronnie Earl and The Broadcasters - Waitin' For My Chance
TTITLE18=Robert Ward - Dry Spell
EXTD=1992 "Black Top" Release \nCatalogue No BT-1079
EXTT0=
EXTT1=
EXTT2=
EXTT3=
EXTT4=
EXTT5=
EXTT6=
EXTT7=
EXTT8=
EXTT9=
EXTT10=
EXTT11=
EXTT12=
EXTT13=
EXTT14=
EXTT15=
EXTT16=
EXTT17=
EXTT18=
PLAYORDER=
